<svg id="Layer_1" data-name="Layer 1" xmlns="http://www.w3.org/2000/svg" viewBox="0 0 102.38 103.51"><defs><style>.cls-1{fill:#3776ab;}.cls-2{fill:#ffd343;}</style></defs><path class="cls-1" d="M50.58,0a70.33,70.33,0,0,0-11.8,1C28.33,2.85,26.43,6.72,26.43,13.84v9.42h24.7v3.13h-34C10,26.39,3.7,30.71,1.74,38.91-.53,48.32-.63,54.19,1.74,64c1.75,7.31,6,12.52,13.12,12.52h8.49V65.25A15.69,15.69,0,0,1,38.78,49.91H63.44A12.45,12.45,0,0,0,75.79,37.36V13.85c0-6.7-5.65-11.72-12.35-12.84A76.51,76.51,0,0,0,50.58,0ZM37.22,7.57a4.71,4.71,0,1,1-4.63,4.72A4.69,4.69,0,0,1,37.22,7.57Z" transform="translate(0 0)"/><path class="cls-2" d="M78.87,26.39v11A15.84,15.84,0,0,1,63.44,53H38.78A12.6,12.6,0,0,0,26.43,65.56V89.08c0,6.69,5.82,10.63,12.35,12.54a41.24,41.24,0,0,0,24.66,0c6.22-1.8,12.35-5.42,12.35-12.54V79.67H51.13V76.53h37c7.17,0,9.85-5,12.35-12.52,2.57-7.74,2.46-15.18,0-25.1-1.78-7.14-5.17-12.52-12.35-12.52ZM65,85.94a4.71,4.71,0,1,1-4.64,4.69A4.66,4.66,0,0,1,65,85.94Z" transform="translate(0 0)"/></svg>